<?xml version="1.0" encoding="utf-8"?>
<!-- Generator: Adobe Illustrator 24.3.0, SVG Export Plug-In . SVG Version: 6.00 Build 0)  -->
<svg version="1.1" id="Capa_1" xmlns="http://www.w3.org/2000/svg" xmlns:xlink="http://www.w3.org/1999/xlink" x="0px" y="0px"
	 viewBox="0 0 1008.9 889.6" style="enable-background:new 0 0 1008.9 889.6;" xml:space="preserve">
<style type="text/css">
	.st0{fill:#0071BC;}
	.st1{fill:#FFFFFF;}
</style>
<g>
	<path class="st0" d="M459.3,43L40.2,796.4c-19.2,34.5,5.7,76.8,45.2,76.8h838.2c39.4,0,64.3-42.4,45.2-76.8L549.6,43
		C529.9,7.6,479,7.6,459.3,43z"/>
	<polygon class="st1" points="499.5,118.5 119.7,794.5 879.2,794.5 	"/>
	<circle class="st0" cx="505.8" cy="700.3" r="62.1"/>
	<path class="st0" d="M507.6,602.8h-1.4c-18.1,0-33.3-13.6-35.4-31.5l-27.4-234.4c-3.9-33.6,21.9-63.3,55.6-64.1l12.4-0.3
		c33.6-0.8,60.2,28.3,56.3,61.7l-27.9,239.9C537.9,590.5,524.1,602.8,507.6,602.8z"/>
</g>
</svg>
