<?xml version="1.0" encoding="utf-8"?>
<!-- Generator: Adobe Illustrator 24.3.0, SVG Export Plug-In . SVG Version: 6.00 Build 0)  -->
<svg version="1.1" id="Capa_1" xmlns="http://www.w3.org/2000/svg" xmlns:xlink="http://www.w3.org/1999/xlink" x="0px" y="0px"
	 viewBox="0 0 1008.9 889.6" style="enable-background:new 0 0 1008.9 889.6;" xml:space="preserve">
<style type="text/css">
	.st0{fill:#FBB03B;}
	.st1{fill:#FEFEFC;}
</style>
<g>
	<path class="st0" d="M456.2,49.9L27.3,792.7c-21.5,32.5,5.4,79,48.3,79h857.7c42.9,0,69.8-46.5,48.3-83.7L552.8,45.2
		C531.3,8.1,477.6,8.1,456.2,49.9z"/>
	<path class="st1" d="M895.3,793.7l-173.2-300c26.4-20.7,36.9-56.8,36.9-82.7c0-89.4-111.3-103.8-111.3-103.8s-8.4-12.4-18.8-29.2
		c-7.4-11.9-24.2-34.6-58.3-46.7l-66.2-114.6l-94.7,164.1c-7.7-0.2-29.8,0.5-56.4,14c-33.2,16.9-38.9,53.8-38.9,53.8
		s-64.5,5.3-64.5,88.8c0,30.5,18.1,49.2,34.8,59.9L113.6,793.7H895.3z"/>
	<path class="st0" d="M639.6,315.3c0,0-7.8-11.4-17.5-26.7c-9.7-15.4-36.7-50.2-101.4-50.2c-70.1,0-100.2,52.8-100.2,52.8
		s-24.4-2.8-55.4,12.7c-30.9,15.5-36.3,49.3-36.3,49.3s-60.2,4.8-60.2,81.3c0,51.8,58,66.4,58,66.4s316.4,0,336.4,0
		c59.1,0,80.3-55.6,80.3-90.6C743.3,328.4,639.6,315.3,639.6,315.3z"/>
	<path class="st0" d="M407.2,552.6c-0.1,9.9-8.2,17.9-18.1,17.8c-9.9-0.1-17.9-8.2-17.8-18.1c0.1-8,13.6-22.1,16.8-32
		c0.6-2,1.4-5.4,1.4-5.4s0.8,3.6,1.5,5.4C397.6,535.9,407.3,544.5,407.2,552.6z"/>
	<path class="st0" d="M488.5,600.9c-0.1,9.9-8.2,17.9-18.1,17.8c-9.9-0.1-17.9-8.2-17.8-18.1c0.1-8,13.6-22.1,16.8-32
		c0.6-2,1.4-5.4,1.4-5.4s0.8,3.6,1.5,5.4C478.9,584.3,488.6,592.9,488.5,600.9z"/>
	<path class="st0" d="M556.3,556.2c-0.1,9.9-8.2,17.9-18.1,17.8c-9.9-0.1-17.9-8.2-17.8-18.1c0.1-8,13.6-22.1,16.8-32
		c0.6-2,1.4-5.4,1.4-5.4s0.8,3.6,1.5,5.4C546.7,539.5,556.4,548.1,556.3,556.2z"/>
	<path class="st0" d="M637.6,604.5c-0.1,9.9-8.2,17.9-18.1,17.8c-9.9-0.1-17.9-8.2-17.8-18.1c0.1-8,13.6-22.1,16.8-32
		c0.6-2,1.4-5.4,1.4-5.4s0.8,3.6,1.5,5.4C628,587.9,637.7,596.5,637.6,604.5z"/>
</g>
</svg>
