<?xml version="1.0" encoding="utf-8"?>
<!-- Generator: Adobe Illustrator 24.3.0, SVG Export Plug-In . SVG Version: 6.00 Build 0)  -->
<svg version="1.1" id="Capa_1" xmlns="http://www.w3.org/2000/svg" xmlns:xlink="http://www.w3.org/1999/xlink" x="0px" y="0px"
	 viewBox="0 0 1008.9 889.6" style="enable-background:new 0 0 1008.9 889.6;" xml:space="preserve">
<style type="text/css">
	.st0{fill:none;stroke:#000000;stroke-miterlimit:10;}
	.st1{fill:none;stroke:#FFFFFF;stroke-miterlimit:10;}
	.st2{fill:#C1272D;}
	.st3{fill:#FFFFFF;}
	.st4{fill:#E0191E;}
</style>
<g>
	<path class="st0" d="M457.2,43.7L25.6,791.3c-21,36.4,5.3,81.9,47.3,81.9h863.3c42,0,68.3-45.5,47.3-81.9L551.7,43.7
		C530.7,7.3,478.2,7.3,457.2,43.7z"/>
	<polygon class="st1" points="504.5,117.3 113.1,795.1 895.8,795.1 	"/>
	<path class="st2" d="M457.2,43.7L25.6,791.3c-21,36.4,5.3,81.9,47.3,81.9h863.3c42,0,68.3-45.5,47.3-81.9L551.7,43.7
		C530.7,7.3,478.2,7.3,457.2,43.7z"/>
	<polygon class="st3" points="504.5,117.3 113.1,795.1 895.8,795.1 	"/>
	<circle class="st2" cx="504.9" cy="350.5" r="54.9"/>
	<path class="st2" d="M603.8,350.5l-26.9-21.2l16.1-30.6h-39.1v-35l-29.5,16.3l-19.3-30.3l-17.8,30.6L455.6,264v35.5h-38.9
		l18.1,31.6l-28.5,19.3l28.5,20l-16.3,30.8h37.8v37.1l31.9-16.1l16.7,29.5l19-29.3l30.4,15.3v-38.1h36.7l-14.3-30.1L603.8,350.5z
		 M504.9,413.5c-34.8,0-63.1-28.2-63.1-63.1s28.2-63.1,63.1-63.1s63.1,28.2,63.1,63.1S539.8,413.5,504.9,413.5z"/>
	<path class="st2" d="M297.5,733.9c0,1.4,0,2.9,0.1,4.3h-45.9c-0.1-1.4-0.1-2.9-0.1-4.3c0-42.6,10.5-82.7,29.2-117.9l39.8,23
		C305.8,667.4,297.5,699.7,297.5,733.9z"/>
	<path class="st2" d="M392,560.3c-26.9,17.4-49.5,40.9-65.9,68.5l-39.7-22.9c20.4-34.6,48.8-63.9,82.6-85.4L392,560.3z"/>
	<path class="st2" d="M498.3,481.5v45.9c-35,0.9-67.8,10.6-96.3,26.9l-22.9-39.7C414.4,494.4,455,482.5,498.3,481.5z"/>
	<path class="st2" d="M629.2,514.5l-22.9,39.7c-28.5-16.3-61.3-25.9-96.3-26.9v-45.9C553.3,482.5,593.9,494.4,629.2,514.5z"/>
	<path class="st4" d="M719,601.3l-36.5,28.4c-16.3-28-39.1-51.8-66.4-69.4l23-39.8C671.5,541.1,698.9,568.7,719,601.3z"/>
	<path class="st4" d="M756.6,733.9c0,1.4,0,2.9-0.1,4.3h-45.9c0.1-1.4,0.1-2.9,0.1-4.3c0-33.8-8.1-65.7-22.5-93.8l36.7-28.6
		C745.1,647.7,756.6,689.5,756.6,733.9z"/>
	<g>
		<path class="st2" d="M494.1,587.7V626c0,2.3-0.4,4.5-1.3,6.6c-0.9,2-2.1,3.8-3.6,5.4s-3.3,2.7-5.4,3.6c-2.1,0.9-4.2,1.3-6.5,1.3
			h-44.9c-2.3,0-4.5-0.4-6.5-1.3c-2-0.9-3.8-2.1-5.4-3.6s-2.7-3.3-3.6-5.4c-0.9-2-1.3-4.2-1.3-6.6v-38.3H437v33.1
			c0,1.3,0.5,2.5,1.4,3.5c0.9,1,2.1,1.5,3.5,1.5h25.7c1.4,0,2.6-0.5,3.5-1.5c1-1,1.5-2.2,1.5-3.5v-33.1H494.1z"/>
		<path class="st2" d="M589.4,587.7l-32.1,55.1h-26.2l-32.1-55.1h23.7l21.5,38.4l21.5-38.4H589.4z"/>
	</g>
	<path class="st2" d="M505.5,709.8c-0.3,0-0.7,0-1,0c-15.7,0-28.4,12.7-28.4,28.4c0,15.7,12.7,28.4,28.4,28.4
		c12.1,0,22.4-7.5,26.5-18.2L691.8,621L505.5,709.8z M504.5,752.3c-7.7,0-14-6.3-14-14.1c0-3.9,1.5-7.4,4-9.9
		c2.6-2.6,6.1-4.2,10-4.2c7.8,0,14.1,6.3,14.1,14.1c0,3.9-1.6,7.5-4.2,10.1C511.8,750.7,508.3,752.3,504.5,752.3z"/>
</g>
</svg>
